<svg id="レイヤー_1" data-name="レイヤー 1" xmlns="http://www.w3.org/2000/svg" viewBox="0 0 264.51 264.51"><defs><style>.cls-1{fill:#ff6d5a;}.cls-2{fill:#fff;}.cls-3{fill:none;stroke:#ce5a4e;stroke-miterlimit:10;stroke-width:0.89px;}</style></defs><title>hold-hands-logo</title><circle class="cls-1" cx="132.26" cy="132.26" r="132.26"/><path class="cls-2" d="M733.82,548a7.85,7.85,0,0,0-1.22-1.75,14.06,14.06,0,0,0-4.46-3.08c-.25-.12-1.06-.35-1.1-.6s.69-1,.85-1.21c1.71-2.2,3.66-4.57,4.23-7.37a6,6,0,0,0-3.6-6.62,15.4,15.4,0,0,0-7.21-1,14.35,14.35,0,0,0-6.84,2c-3.25,2-5.42,6.05-4.47,9.76a10,10,0,0,0,4.47,5.68,29.78,29.78,0,0,0,6.78,2.92L717,550.71a4.62,4.62,0,0,0-6.41-.65,5.83,5.83,0,0,0-1.5,6.57c.12.31-3.14,1.65-3.46,1.78a14.26,14.26,0,0,1-6.65,1.38,1,1,0,0,1-.83-.37,1,1,0,0,1-.07-.46c0-8.34,0-16.69,0-25q0-9.71,0-19.42c0-1.42,0-1.42,0-2.85a58.36,58.36,0,0,1-11.64,1.1V463.22a48.24,48.24,0,0,1-10,.94h-1.51v1.08H680v19.94h-.43a9.74,9.74,0,0,0-9.5-5.9q-6.7,0-9.94,5.15t-3.24,12.92a26.16,26.16,0,0,0,2,10.65,10.36,10.36,0,0,1-3.38,3.17,9.68,9.68,0,0,1-5.14,1.63c-.43,0-.41-.24-.41-.58v-49a13.22,13.22,0,0,1-1.54.3c-.48.08-1,.15-1.44.21-1.43.17-2.87,0-4.3.21a7.51,7.51,0,0,0-2.54.7,10.57,10.57,0,0,0-3.63,3.64c-2.83,4-5.41,8.3-8.78,11.9a24.94,24.94,0,0,1-2,2,15.07,15.07,0,0,0-9.42-2.88q-7.49,0-11.66,5t-4.18,13a26.68,26.68,0,0,0,.2,3.18c-.07.32-.13.64-.2,1a18.28,18.28,0,0,1-2.64,6.46,12.84,12.84,0,0,1-2.18,2.42,10.38,10.38,0,0,1-7.67,2.39c-.23,0-.31-.11-.31-.34s0-.29,0-.44V487.2a8.82,8.82,0,0,0,1.91-1.11,12.46,12.46,0,0,0,3.17-4.14,15.35,15.35,0,0,0,1.4-7,10.86,10.86,0,0,0-1.91-6.77,6.08,6.08,0,0,0-5.08-2.48,6.66,6.66,0,0,0-5.08,2q-1.91,2-1.91,6.19v14c-1.63.24-4.6.42-8.93.54q-6.17.18-10.87.73v-21h6V467H547.61v1.15h5.26v22.36a18.15,18.15,0,0,0-6.55,3.71q-3.6,3.31-3.6,9.79,0,5.4,2.7,8.32a9.47,9.47,0,0,0,2,1.66h-12q0,.58,0,1.15h5.26l0,22.27a16.28,16.28,0,0,0-8.86,7.34,12.86,12.86,0,0,0-.56,11.33,10.65,10.65,0,0,0,9.26,6.2,7.22,7.22,0,0,0,6.12-2.93,10.65,10.65,0,0,0,1.32-5.13c.41-5.59.3-11.2.19-16.81l19.84-1.37q0,11.8,0,23.59l-5.24,0V561c3.23-.51,6.52-.14,9.79-.18s6.7-.6,9.25-2.64a15.53,15.53,0,0,0,4.34-6.73c2.06-5.32,3.14-11,4.8-16.41a13.33,13.33,0,0,1,2.2-4.64A7.72,7.72,0,0,1,598,527.9a13.88,13.88,0,0,1,5.08-.05,7.4,7.4,0,0,1,3.35,1.66,9.77,9.77,0,0,1,2.86,6.16,58.09,58.09,0,0,1,.11,6.94c-2.74.32-5.51.25-8.26.4a20.91,20.91,0,0,0-8,1.76,9.81,9.81,0,0,0-5.34,6,9,9,0,0,0,3.25,9,12.79,12.79,0,0,0,9.58,2.41,12.55,12.55,0,0,0,5.53-2,8.67,8.67,0,0,0,3.48-4.65c.16-.56.38-1.26,1-1.32a13.72,13.72,0,0,0,.2,4.36,4.88,4.88,0,0,0,2.6,3.34c2.42,1,5.18-.67,6.37-2.77a16.11,16.11,0,0,0,1.56-5.36c1.14-6.74,2.36-13.54,5-19.83a11.73,11.73,0,0,1,3.49-5.06q0,15.36,0,30.72l-4.62.22v.95h15.68v-1l-4.36-.2c-.59-8.12-1.15-16.51,1.54-24.2a12.57,12.57,0,0,1,3.71-5.87,5.92,5.92,0,0,1,6.56-.77c2.23,1.36,2.85,4.28,3.14,6.87.89,8,.6,16,.26,24l-4.43.2v1a30.91,30.91,0,0,0,4.44,0c2-.07,4,0,6-.16a15.94,15.94,0,0,0,8.47-3.42,15.72,15.72,0,0,0,2.2-2.16c.33-.4.64-.82.93-1.24.11-.15.51-.53.46-.73a12.16,12.16,0,0,0,9.32,9,10.42,10.42,0,0,0,11.2-5.94c.3-.74.58-1.6,1.31-1.94l.06,6.6c0,.49,7.25.09,7.92,0a28.2,28.2,0,0,0,5.35-1.2c.39-.13,4.66-1.71,4.48-2.07,1,2,3.07,3.09,5.15,3.76a20.73,20.73,0,0,0,12.78,0,11.16,11.16,0,0,0,5.32-3.35,9.42,9.42,0,0,0,1.9-5A9.08,9.08,0,0,0,733.82,548ZM587.64,472.59q0-3.82,2.38-3.82,1.22,0,1.94,1.73a13.44,13.44,0,0,1,.72,5,15.75,15.75,0,0,1-1.3,6.26,6.66,6.66,0,0,1-1.76,2.23c-.76.65-1.42,1.18-2,1.6Zm-47,83.13q0,4.1-2.66,4.1a5,5,0,0,1-4.46-2.48,12.41,12.41,0,0,1-1.58-6.73q0-6.41,4.46-9.65a15.32,15.32,0,0,1,4.25-2ZM665,486.91q1.3-5.62,6.26-5.62a7.2,7.2,0,0,1,6.77,3.92,19.53,19.53,0,0,1,2.16,9.54v2.59a26.69,26.69,0,0,1-2.09,10.15,11.14,11.14,0,0,1-2.77,4.14,5.8,5.8,0,0,1-4,1.62,5.65,5.65,0,0,1-3.89-1.44,7.92,7.92,0,0,1-2.3-4,32.05,32.05,0,0,1-.94-4.93q-.25-2.38-.25-6.91A39,39,0,0,1,665,486.91Zm-52.7-5.4a8.43,8.43,0,0,1,8,0,7.18,7.18,0,0,1,2.59,2.56v0a11.14,11.14,0,0,1-2.25.91c-3.49,1-7.2,0-10.5-1.58A7.38,7.38,0,0,1,612.3,481.51Zm-4.72,10.94a29.31,29.31,0,0,1,.68-4.46,14.29,14.29,0,0,1,1.34-3.74,16.58,16.58,0,0,0,9.65,2,13,13,0,0,0,4.07-1.32,15.79,15.79,0,0,1,1,3.06,29.43,29.43,0,0,1,.68,4.46q.14,2.09.14,4.82t-.14,4.82a29.41,29.41,0,0,1-.68,4.46,14,14,0,0,1-1.44,3.92,7.16,7.16,0,0,1-2.59,2.56,8.43,8.43,0,0,1-8,0,7.15,7.15,0,0,1-2.59-2.56,14,14,0,0,1-1.44-3.92,29.29,29.29,0,0,1-.68-4.46q-.15-2.09-.14-4.82T607.58,492.46Zm-61.85,17.89a12.41,12.41,0,0,1-1.58-6.73q0-6.41,4.46-9.65a15.32,15.32,0,0,1,4.25-2v16.73q0,4.1-2.66,4.1A5,5,0,0,1,545.74,510.35Zm23.34,5.45a11.58,11.58,0,0,0-1,4.92q-.36,7.08-.1,14.17l-19.84,1.22q0-5.4,0-10.81V520c0-1.31,0-2.62,0-3.92a1.17,1.17,0,0,1,.08-.53.8.8,0,0,1,.59-.39,2.56,2.56,0,0,1,.74,0,16.39,16.39,0,0,0,3.92.07c4.66-.54,6.95-4.51,6.95-8.92V490.48c2.14-.27,4.51-.48,7.13-.61l3.38-.14q4.82-.22,7.2-.4c.62,0,1.33-.14,2.09-.25v23.62h-4.73A6.48,6.48,0,0,0,569.07,515.8Zm8.72,0q1.22,0,1.94,1.73a13.44,13.44,0,0,1,.72,5,15.75,15.75,0,0,1-1.3,6.26,6.66,6.66,0,0,1-1.76,2.23c-.76.65-1.42,1.18-2,1.6v-13Q575.42,515.75,577.79,515.75Zm31.68,33a14.77,14.77,0,0,1-2.12,8.14,6.57,6.57,0,0,1-5.8,3.31q-3.67,0-5.33-2.09a8.66,8.66,0,0,1-1.66-5.54q0-5.69,4.61-7.34a16.75,16.75,0,0,1,4.36-1.08q2.12-.22,3.67-.22h2.27ZM669,538.58a33.61,33.61,0,0,0-.23,8.42c.11,1.4.34,2.8.43,4.19a3.7,3.7,0,0,1-1.1,2.29,17.42,17.42,0,0,1-6.86,5.63,4.8,4.8,0,0,1-2.36.59.64.64,0,0,1-.45-.19.68.68,0,0,1-.12-.31,14,14,0,0,1,0-2.31c0-1.13,0-2.26,0-3.39,0-2.21.09-4.41.13-6.62a55.7,55.7,0,0,0-.89-12.91,10.7,10.7,0,0,0-2.14-4.9,8.51,8.51,0,0,0-4.64-2.51,12.92,12.92,0,0,0-14.16,7.37l-.27-6.94-3.49.53a14.49,14.49,0,0,0-3.33.54c-1.65.71-2.74,2.6-3.48,4.13-3.69,7.6-4.08,16.33-6.39,24.45-.32,1.14-1.25,3.2-2.78,2.56-.59-.25-.74-1-.79-1.63-.64-7.39.59-14.94-.9-22.21-.66-3.21-2-5.88-4.92-7.5a18.06,18.06,0,0,0-8.91-2c-3.38.07-7,1-9.19,3.62a14.14,14.14,0,0,0-2.33,5.4l-2.85,10.4c-.86,3.16-1.76,6.37-3.55,9.11s-4.69,5-8,5.12l0-23.89a2.5,2.5,0,0,1,.24-1.31,2.91,2.91,0,0,1,1-.85c3.13-2,4.72-5.77,5.17-9.45s-.35-8-3.31-10.16h.23c1.83,0,3.66,0,5.49,0a32.31,32.31,0,0,0,6-.13,13.29,13.29,0,0,0,9.6-7.19,16.34,16.34,0,0,0,1.23-3.61,17.55,17.55,0,0,0,3.54,7.26q4.17,5,11.66,5t11.66-5q4.17-5,4.18-13t-4.18-13a14,14,0,0,0-1.45-1.48,27.47,27.47,0,0,0,4.37-4.63c1.47-1.93,2.77-4,4.12-6,.68-1,1.37-2,2.1-3,.45-.6.95-1.16,1.43-1.74A10,10,0,0,1,640,465.9a3.86,3.86,0,0,1,2.37-.8c.33,0,.87,0,1.12.24s.12.62.12.94v46.48h-4.75v1.08c1.68,0,3.38-.1,5.05,0s3.33.22,5,.13c3.84-.21,7.82-1.37,10.29-4.5.09-.12.17-.25.26-.37.2.39.41.77.64,1.14q3.13,5.08,9.61,5.08a9.12,9.12,0,0,0,6.08-2.16,13.18,13.18,0,0,0,3.85-5.83H680v6.55c3.71,0,7.42,0,11.13,0a.66.66,0,0,1,.41.08.67.67,0,0,1,.17.59c-.13,3-.06,6-.08,9,0,1.44,0,2.88,0,4.32V530c0,.49-.24,1.75,0,2.15a11.44,11.44,0,0,0-16-4.36C671.94,530.08,669.78,534.3,669,538.58Zm22.81,5.76a26.69,26.69,0,0,1-2.09,10.15,11.13,11.13,0,0,1-2.77,4.14,5.79,5.79,0,0,1-4,1.62,5.65,5.65,0,0,1-3.89-1.44,7.91,7.91,0,0,1-2.3-4,32.12,32.12,0,0,1-.94-4.93q-.25-2.38-.25-6.91a39.07,39.07,0,0,1,1.08-9.07q1.3-5.62,6.26-5.62a7.2,7.2,0,0,1,6.77,3.92,19.53,19.53,0,0,1,2.16,9.54Zm24.69-6.55a5.29,5.29,0,0,1-2.09-4.36,4.66,4.66,0,0,1,2.63-4.21,13.29,13.29,0,0,1,6.7-1.51c2,0,4.29.24,5.93,1.52,2.08,1.62,2.07,4.54,1,6.77a14.63,14.63,0,0,1-2.93,3.93,16.08,16.08,0,0,1-1.87,1.8c-.67.49-1.17,0-1.85-.24s-1.67-.64-2.51-1A18,18,0,0,1,716.53,537.78Zm-6.32,18.15a3.84,3.84,0,0,1-.16-1.09c0-.43.2-.65.61-.65a.63.63,0,0,1,.68.65,2.73,2.73,0,0,0,.09.28Q710.82,555.55,710.21,555.94Zm9.42,4.89q-4.75,0-7.16-1.91a7.2,7.2,0,0,1-1.86-2.07q.67-.42,1.34-.88a3.6,3.6,0,0,0,4.81-.37,4.12,4.12,0,0,0,.94-2.74,3.75,3.75,0,0,0-.23-1.26c1.65-1.48,3.24-3,4.79-4.58l.69.26q7.13,2.59,7.13,6.77Q730.07,560.83,719.63,560.82Z" transform="translate(-507.79 -379.95)"/><circle class="cls-2" cx="616.65" cy="497.29" r="18.32" transform="translate(-620.81 -191.09) rotate(-15.97)"/><circle class="cls-1" cx="611.98" cy="494.93" r="1.92" transform="translate(-620.34 -192.47) rotate(-15.97)"/><circle class="cls-1" cx="619.36" cy="492.82" r="1.92" transform="translate(-619.48 -190.52) rotate(-15.97)"/><circle class="cls-1" cx="613.93" cy="501.77" r="1.92" transform="translate(-622.15 -191.67) rotate(-15.97)"/><circle class="cls-1" cx="621.31" cy="499.65" r="1.92" transform="matrix(0.96, -0.28, 0.28, 0.96, -621.28, -189.72)"/><circle class="cls-3" cx="616.65" cy="497.29" r="15.98" transform="translate(-620.81 -191.09) rotate(-15.97)"/></svg>