<?xml version="1.0" encoding="utf-8"?>
<!-- Generator: Adobe Illustrator 21.1.0, SVG Export Plug-In . SVG Version: 6.00 Build 0)  -->
<svg version="1.1" id="レイヤー_1" xmlns="http://www.w3.org/2000/svg" xmlns:xlink="http://www.w3.org/1999/xlink" x="0px"
	 y="0px" viewBox="0 0 264.5 264.5" style="enable-background:new 0 0 264.5 264.5;" xml:space="preserve">
<style type="text/css">
	.st0{fill:#FF6D5A;}
	.st1{fill:#FFFFFF;}
	.st2{fill:none;stroke:#CE5A4E;stroke-width:0.89;stroke-miterlimit:10;}
</style>
<title>hold-hands-logo</title>
<circle class="st0" cx="132.3" cy="132.3" r="132.3"/>
<path class="st1" d="M226,168c-0.3-0.6-0.7-1.2-1.2-1.8c-1.3-1.3-2.8-2.4-4.5-3.1c-0.2-0.1-1.1-0.3-1.1-0.6s0.7-1,0.8-1.2
	c1.7-2.2,3.7-4.6,4.2-7.4c0.5-2.8-1-5.5-3.6-6.6c-2.3-0.9-4.8-1.2-7.2-1c-2.4,0.1-4.8,0.8-6.8,2c-3.2,2-5.4,6-4.5,9.8
	c0.7,2.4,2.3,4.4,4.5,5.7c2.1,1.3,4.4,2.2,6.8,2.9l-4.2,4c-1.6-1.9-4.4-2.2-6.4-0.7c-1.8,1.6-2.4,4.3-1.5,6.6
	c0.1,0.3-3.1,1.7-3.5,1.8c-2.1,1-4.4,1.5-6.7,1.4c-0.3,0-0.6-0.1-0.8-0.4c-0.1-0.1-0.1-0.3-0.1-0.5c0-8.3,0-16.7,0-25
	c0-6.5,0-12.9,0-19.4c0-1.4,0-1.4,0-2.9c-3.8,0.8-7.7,1.1-11.6,1.1V83.3c-3.3,0.7-6.6,1-10,0.9h-1.5v1.1h5.1v19.9h-0.4
	c-1.6-3.8-5.4-6.1-9.5-5.9c-4.5,0-7.8,1.7-9.9,5.1s-3.2,7.7-3.2,12.9c-0.1,3.7,0.6,7.3,2,10.6c-0.9,1.3-2,2.4-3.4,3.2
	c-1.5,1-3.3,1.6-5.1,1.6c-0.4,0-0.4-0.2-0.4-0.6v-49c-0.5,0.1-1,0.2-1.5,0.3c-0.5,0.1-1,0.1-1.4,0.2c-1.4,0.2-2.9,0-4.3,0.2
	c-0.9,0.1-1.7,0.3-2.5,0.7c-1.5,0.9-2.7,2.1-3.6,3.6c-2.8,4-5.4,8.3-8.8,11.9c-0.6,0.7-1.3,1.4-2,2c-2.7-2-6-3-9.4-2.9
	c-5,0-8.9,1.7-11.7,5c-2.8,3.3-4.2,7.7-4.2,13c0,1.1,0.1,2.1,0.2,3.2c-0.1,0.3-0.1,0.6-0.2,1c-0.5,2.3-1.4,4.5-2.6,6.5
	c-0.6,0.9-1.4,1.7-2.2,2.4c-2.1,1.8-4.9,2.7-7.7,2.4c-0.2,0-0.3-0.1-0.3-0.3s0-0.3,0-0.4v-24.8c0.7-0.3,1.3-0.7,1.9-1.1
	c1.3-1.1,2.4-2.6,3.2-4.1c1-2.2,1.5-4.6,1.4-7c0.1-2.4-0.5-4.8-1.9-6.8c-1.2-1.6-3.1-2.5-5.1-2.5c-1.9-0.1-3.8,0.6-5.1,2
	c-1.3,1.3-1.9,3.4-1.9,6.2v14c-1.6,0.2-4.6,0.4-8.9,0.5c-4.1,0.1-7.7,0.4-10.9,0.7v-21h6V87H39.8v1.1h5.3v22.4
	c-2.4,0.8-4.6,2-6.5,3.7c-2.4,2.2-3.6,5.5-3.6,9.8c0,3.6,0.9,6.4,2.7,8.3c0.6,0.6,1.3,1.2,2,1.7h-12c0,0.4,0,0.8,0,1.2h5.3v22.3
	c-3.7,1.3-6.9,3.9-8.9,7.3c-1.9,3.5-2.1,7.7-0.6,11.3c1.7,3.6,5.3,6,9.3,6.2c2.4,0.1,4.7-1,6.1-2.9c0.9-1.6,1.3-3.3,1.3-5.1
	c0.4-5.6,0.3-11.2,0.2-16.8l19.8-1.4c0,7.9,0,15.7,0,23.6H55v1.4c3.2-0.5,6.5-0.1,9.8-0.2s6.7-0.6,9.2-2.6c2-1.8,3.5-4.1,4.3-6.7
	c2.1-5.3,3.1-11,4.8-16.4c0.4-1.7,1.2-3.3,2.2-4.6c1.3-1.4,3-2.3,4.9-2.5c1.7-0.3,3.4-0.3,5.1,0c1.2,0.3,2.4,0.8,3.3,1.7
	c1.7,1.6,2.7,3.8,2.9,6.2c0.2,2.3,0.2,4.6,0.1,6.9c-2.7,0.3-5.5,0.2-8.3,0.4c-2.8,0.1-5.5,0.7-8,1.8c-2.6,1.1-4.5,3.3-5.3,6
	c-0.7,3.4,0.5,6.9,3.2,9c2.7,2.1,6.2,2.9,9.6,2.4c2-0.2,3.9-0.9,5.5-2c1.7-1.1,2.9-2.7,3.5-4.7c0.2-0.6,0.4-1.3,1-1.3
	c-0.2,1.5-0.1,2.9,0.2,4.4c0.3,1.5,1.3,2.7,2.6,3.3c2.4,1,5.2-0.7,6.4-2.8c0.8-1.7,1.4-3.5,1.6-5.4c1.1-6.7,2.4-13.5,5-19.8
	c0.7-2,1.9-3.7,3.5-5.1c0,10.2,0,20.5,0,30.7l-4.6,0.2v1h15.7v-1l-4.4-0.2c-0.6-8.1-1.2-16.5,1.5-24.2c0.7-2.3,1.9-4.3,3.7-5.9
	c1.8-1.6,4.4-1.9,6.6-0.8c2.2,1.4,2.8,4.3,3.1,6.9c0.9,8,0.6,16,0.3,24l-4.4,0.2v1c1.5,0.1,3,0.1,4.4,0c2-0.1,4,0,6-0.2
	c3.1-0.3,6-1.5,8.5-3.4c0.8-0.6,1.5-1.4,2.2-2.2c0.3-0.4,0.6-0.8,0.9-1.2c0.1-0.2,0.5-0.5,0.5-0.7c1.1,4.5,4.7,8,9.3,9
	c4.6,0.8,9.2-1.7,11.2-5.9c0.3-0.7,0.6-1.6,1.3-1.9l0.1,6.6c0,0.5,7.2,0.1,7.9,0c1.8-0.2,3.6-0.6,5.3-1.2c0.4-0.1,4.7-1.7,4.5-2.1
	c1,2,3.1,3.1,5.2,3.8c4.2,1.3,8.6,1.3,12.8,0c2.1-0.6,3.9-1.7,5.3-3.3c1.1-1.4,1.8-3.2,1.9-5C227,171.3,226.8,169.6,226,168z
	 M79.9,92.6c0-2.5,0.8-3.8,2.4-3.8c0.8,0,1.5,0.6,1.9,1.7c0.6,1.6,0.8,3.3,0.7,5c0,2.2-0.4,4.3-1.3,6.3c-0.4,0.9-1,1.6-1.8,2.2
	c-0.8,0.6-1.4,1.2-2,1.6L79.9,92.6z M32.9,175.8c0,2.7-0.9,4.1-2.7,4.1c-1.8,0.1-3.5-0.9-4.5-2.5c-1.2-2-1.7-4.4-1.6-6.7
	c0-4.3,1.5-7.5,4.5-9.7c1.3-0.9,2.7-1.6,4.2-2L32.9,175.8z M157.2,107c0.9-3.7,3-5.6,6.3-5.6c2.8-0.1,5.5,1.4,6.8,3.9
	c1.5,2.9,2.3,6.2,2.2,9.5v2.6c0,3.5-0.7,6.9-2.1,10.1c-0.6,1.6-1.5,3-2.8,4.1c-1.1,1-2.5,1.6-4,1.6c-1.4,0-2.8-0.5-3.9-1.4
	c-1.1-1.1-1.9-2.5-2.3-4c-0.4-1.6-0.8-3.3-0.9-4.9c-0.2-1.6-0.2-3.9-0.2-6.9C156.2,113,156.5,109.9,157.2,107z M104.5,101.6
	c2.5-1.3,5.5-1.3,8,0c1.1,0.6,2,1.5,2.6,2.6l0,0c-0.7,0.4-1.5,0.7-2.2,0.9c-3.5,1-7.2,0-10.5-1.6C102.9,102.7,103.7,102,104.5,101.6
	z M99.8,112.5c0.1-1.5,0.3-3,0.7-4.5c0.3-1.3,0.7-2.6,1.3-3.7c2.9,1.6,6.3,2.3,9.7,2c1.4-0.2,2.8-0.7,4.1-1.3c0.4,1,0.8,2,1,3.1
	c0.3,1.5,0.6,3,0.7,4.5c0.1,1.4,0.1,3,0.1,4.8s0,3.4-0.1,4.8c-0.1,1.5-0.3,3-0.7,4.5c-0.3,1.4-0.8,2.7-1.4,3.9
	c-0.6,1.1-1.5,1.9-2.6,2.6c-2.5,1.3-5.5,1.3-8,0c-1.1-0.6-2-1.5-2.6-2.6c-0.7-1.2-1.2-2.5-1.4-3.9c-0.3-1.5-0.6-3-0.7-4.5
	c-0.1-1.4-0.1-3-0.1-4.8C99.7,115.5,99.7,113.9,99.8,112.5L99.8,112.5z M37.9,130.4c-1.2-2-1.7-4.4-1.6-6.7c0-4.3,1.5-7.5,4.5-9.6
	c1.3-0.9,2.7-1.6,4.2-2v16.7c0,2.7-0.9,4.1-2.7,4.1C40.6,132.9,38.9,132,37.9,130.4L37.9,130.4z M61.3,135.8c-0.7,1.5-1,3.2-1,4.9
	c-0.2,4.7-0.3,9.4-0.1,14.2l-19.8,1.2c0-3.6,0-7.2,0-10.8V140c0-1.3,0-2.6,0-3.9c0-0.2,0-0.4,0.1-0.5c0.1-0.2,0.3-0.4,0.6-0.4
	c0.2,0,0.5,0,0.7,0c1.3,0.2,2.6,0.2,3.9,0.1c4.7-0.5,7-4.5,7-8.9v-15.8c2.1-0.3,4.5-0.5,7.1-0.6l3.4-0.1c3.2-0.1,5.6-0.3,7.2-0.4
	c0.6,0,1.3-0.1,2.1-0.2v23.6h-4.7C65.1,132.4,62.6,133.6,61.3,135.8L61.3,135.8z M70,135.8c0.8,0,1.5,0.6,1.9,1.7
	c0.6,1.6,0.8,3.3,0.7,5c0,2.2-0.4,4.3-1.3,6.3c-0.4,0.9-1,1.6-1.8,2.2c-0.8,0.7-1.4,1.2-2,1.6v-13C67.6,137.1,68.4,135.8,70,135.8
	L70,135.8z M101.7,168.8c0.1,2.9-0.6,5.7-2.1,8.1c-1.2,2.1-3.4,3.3-5.8,3.3c-2.4,0-4.2-0.7-5.3-2.1c-1.2-1.6-1.8-3.6-1.7-5.5
	c0-3.8,1.5-6.2,4.6-7.3c1.4-0.6,2.9-0.9,4.4-1.1c1.4-0.1,2.6-0.2,3.7-0.2h2.3V168.8z M161.2,158.6c-0.4,2.8-0.5,5.6-0.2,8.4
	c0.1,1.4,0.3,2.8,0.4,4.2c-0.1,0.9-0.5,1.7-1.1,2.3c-1.8,2.4-4.1,4.4-6.9,5.6c-0.7,0.4-1.5,0.6-2.4,0.6c-0.2,0-0.3-0.1-0.5-0.2
	c-0.1-0.1-0.1-0.2-0.1-0.3c-0.1-0.8-0.1-1.5,0-2.3c0-1.1,0-2.3,0-3.4c0-2.2,0.1-4.4,0.1-6.6c0.2-4.3-0.1-8.7-0.9-12.9
	c-0.3-1.8-1-3.5-2.1-4.9c-1.2-1.3-2.9-2.2-4.6-2.5c-5.9-1.1-11.7,1.9-14.2,7.4l-0.3-6.9l-3.5,0.5c-1.1,0-2.2,0.2-3.3,0.5
	c-1.7,0.7-2.7,2.6-3.5,4.1c-3.7,7.6-4.1,16.3-6.4,24.5c-0.3,1.1-1.2,3.2-2.8,2.6c-0.6-0.2-0.7-1-0.8-1.6c-0.6-7.4,0.6-14.9-0.9-22.2
	c-0.7-3.2-2-5.9-4.9-7.5c-2.7-1.4-5.8-2.1-8.9-2c-3.4,0.1-7,1-9.2,3.6c-1.1,1.6-1.9,3.5-2.3,5.4l-2.8,10.4c-0.9,3.2-1.8,6.4-3.5,9.1
	s-4.7,5-8,5.1v-23.9c0-0.5,0-0.9,0.2-1.3c0.3-0.4,0.6-0.6,1-0.8c3.1-2,4.7-5.8,5.2-9.5s-0.3-8-3.3-10.2H71c1.8,0,3.7,0,5.5,0
	c2,0.1,4,0.1,6-0.1c4.2-0.7,7.7-3.4,9.6-7.2c0.5-1.2,1-2.4,1.2-3.6c0.6,2.7,1.8,5.1,3.5,7.3c2.8,3.3,6.7,5,11.7,5s8.9-1.7,11.7-5
	c2.8-3.3,4.2-7.7,4.2-13s-1.4-9.7-4.2-13c-0.4-0.5-0.9-1-1.5-1.5c1.6-1.4,3.1-2.9,4.4-4.6c1.5-1.9,2.8-4,4.1-6c0.7-1,1.4-2,2.1-3
	c0.5-0.6,1-1.2,1.4-1.7c0.4-0.5,0.9-1,1.5-1.4c0.7-0.5,1.5-0.8,2.4-0.8c0.3,0,0.9,0,1.1,0.2s0.1,0.6,0.1,0.9v46.5h-4.8v1.1
	c1.7,0,3.4-0.1,5,0s3.3,0.2,5,0.1c3.8-0.2,7.8-1.4,10.3-4.5c0.1-0.1,0.2-0.2,0.3-0.4c0.2,0.4,0.4,0.8,0.6,1.1
	c2.1,3.4,5.3,5.1,9.6,5.1c2.2,0,4.4-0.7,6.1-2.2c1.8-1.6,3.1-3.6,3.8-5.8h0.4v6.6c3.7,0,7.4,0,11.1,0c0.1,0,0.3,0,0.4,0.1
	c0.1,0.2,0.2,0.4,0.2,0.6c-0.1,3-0.1,6-0.1,9c0,1.4,0,2.9,0,4.3v2.1c0,0.5-0.2,1.8,0,2.2c-3-5.6-9.9-7.6-15.5-4.6
	c-0.2,0.1-0.3,0.2-0.5,0.3C164.1,150.1,162,154.3,161.2,158.6z M184,164.4c0,3.5-0.7,6.9-2.1,10.2c-0.6,1.6-1.5,3-2.8,4.1
	c-1.1,1-2.5,1.6-4,1.6c-1.4,0-2.8-0.5-3.9-1.4c-1.1-1.1-1.9-2.5-2.3-4c-0.4-1.6-0.8-3.3-0.9-4.9c-0.2-1.6-0.2-3.9-0.2-6.9
	c0-3.1,0.4-6.1,1.1-9.1c0.9-3.7,3-5.6,6.3-5.6c2.8-0.1,5.5,1.4,6.8,3.9c1.5,2.9,2.3,6.2,2.2,9.5L184,164.4z M208.7,157.8
	c-1.4-1-2.1-2.7-2.1-4.4c0-1.8,1-3.4,2.6-4.2c2.1-1.1,4.4-1.6,6.7-1.5c2,0,4.3,0.2,5.9,1.5c2.1,1.6,2.1,4.5,1,6.8
	c-0.7,1.5-1.7,2.8-2.9,3.9c-0.6,0.6-1.2,1.3-1.9,1.8c-0.7,0.5-1.2,0-1.8-0.2s-1.7-0.6-2.5-1C211.9,159.9,210.2,159,208.7,157.8
	L208.7,157.8z M202.4,176c-0.1-0.4-0.2-0.7-0.2-1.1c0-0.4,0.2-0.7,0.6-0.7c0.3,0,0.7,0.2,0.7,0.6c0,0,0,0,0,0.1
	c0,0.1,0.1,0.2,0.1,0.3C203.2,175.5,202.8,175.7,202.4,176L202.4,176z M211.8,180.9c-3.2,0-5.6-0.6-7.2-1.9
	c-0.7-0.6-1.4-1.3-1.9-2.1c0.4-0.3,0.9-0.6,1.3-0.9c1.5,1.1,3.5,1,4.8-0.4c0.6-0.8,1-1.7,0.9-2.7c0-0.4-0.1-0.9-0.2-1.3
	c1.7-1.5,3.2-3,4.8-4.6l0.7,0.3c4.8,1.7,7.1,4,7.1,6.8C222.3,178.6,218.8,180.9,211.8,180.9L211.8,180.9z"/>
<ellipse transform="matrix(0.9614 -0.2751 0.2751 0.9614 -28.0845 34.4806)" class="st1" cx="108.9" cy="117.3" rx="18.3" ry="18.3"/>
<ellipse transform="matrix(0.9614 -0.2751 0.2751 0.9614 -27.6142 33.1047)" class="st0" cx="104.2" cy="115" rx="1.9" ry="1.9"/>
<ellipse transform="matrix(0.9614 -0.2751 0.2751 0.9614 -26.7621 34.9618)" class="st0" cx="111.2" cy="112.9" rx="1.9" ry="1.9"/>
<ellipse transform="matrix(0.9614 -0.2751 0.2751 0.9614 -29.4209 33.9043)" class="st0" cx="106.1" cy="121.8" rx="1.9" ry="1.9"/>
<ellipse transform="matrix(0.96 -0.28 0.28 0.96 -28.8683 36.4552)" class="st0" cx="113.2" cy="119.3" rx="1.9" ry="1.9"/>
<ellipse transform="matrix(0.9614 -0.2751 0.2751 0.9614 -28.0845 34.4806)" class="st2" cx="108.9" cy="117.3" rx="16" ry="16"/>
</svg>
